PathFileType	4	(X/Y/Z)	Kaydara	
DataRate	CameraRate	NumFrames	NumMarkers	Units	OrigDataRate	OrigDataStartFrame	OrigNumFrames	
60.00	60.00	4	74	mm	60.00	1876	201	
Frame#	Time	Z_lasi			Z_rasi			Z_rpsi			Z_lpsi			Z_fneck			Z_bneck			Z_fhead			Z_rhead			Z_lhead			Z_rshld			Z_relbtop			Z_relbext			Z_relblow			Z_rwrext			Z_rwrtop			Z_rwrlow			Z_lshld			Z_lelbext			Z_lelblow			Z_lelbtop			Z_lwrext			Z_lwrtop			Z_lwrlow			Z_rtopleg			Z_ltopleg			Z_rkneefr			Z_rkneebk			Z_rkneeis			Z_lkneefr			Z_lknssbk			Z_lkneeis			Z_rankfr			Z_rankis			Z_rankbk			Z_lankfr			Z_lankbk			Z_lankis			A_lasi			A_rasi			A_rpsi			A_lpsi			A_fneck			A_bneck			A_fhead			A_rhead			A_lhead			A_rshld			A_relbtop			A_relbext			A_relblow			A_rwrext			A_rwrtop			A_rwrlow			A_lshld			A_lelbext			A_lelblow			A_lelbtop			A_lwrext			A_lwrtop			A_lwrlow			A_rtopleg			A_ltopleg			A_rkneefr			A_rkneebk			A_rkneeis			A_lkneefr			A_lknssbk			A_lkneeis			A_rankfr			A_rankis			A_rankbk			A_lankfr			A_lankbk			A_lankis			
		X1	Y1	Z1	X2	Y2	Z2	X3	Y3	Z3	X4	Y4	Z4	X5	Y5	Z5	X6	Y6	Z6	X7	Y7	Z7	X8	Y8	Z8	X9	Y9	Z9	X10	Y10	Z10	X11	Y11	Z11	X12	Y12	Z12	X13	Y13	Z13	X14	Y14	Z14	X15	Y15	Z15	X16	Y16	Z16	X17	Y17	Z17	X18	Y18	Z18	X19	Y19	Z19	X20	Y20	Z20	X21	Y21	Z21	X22	Y22	Z22	X23	Y23	Z23	X24	Y24	Z24	X25	Y25	Z25	X26	Y26	Z26	X27	Y27	Z27	X28	Y28	Z28	X29	Y29	Z29	X30	Y30	Z30	X31	Y31	Z31	X32	Y32	Z32	X33	Y33	Z33	X34	Y34	Z34	X35	Y35	Z35	X36	Y36	Z36	X37	Y37	Z37	X38	Y38	Z38	X39	Y39	Z39	X40	Y40	Z40	X41	Y41	Z41	X42	Y42	Z42	X43	Y43	Z43	X44	Y44	Z44	X45	Y45	Z45	X46	Y46	Z46	X47	Y47	Z47	X48	Y48	Z48	X49	Y49	Z49	X50	Y50	Z50	X51	Y51	Z51	X52	Y52	Z52	X53	Y53	Z53	X54	Y54	Z54	X55	Y55	Z55	X56	Y56	Z56	X57	Y57	Z57	X58	Y58	Z58	X59	Y59	Z59	X60	Y60	Z60	X61	Y61	Z61	X62	Y62	Z62	X63	Y63	Z63	X64	Y64	Z64	X65	Y65	Z65	X66	Y66	Z66	X67	Y67	Z67	X68	Y68	Z68	X69	Y69	Z69	X70	Y70	Z70	X71	Y71	Z71	X72	Y72	Z72	X73	Y73	Z73	X74	Y74	Z74	

76	31.250	-236.87988	1066.98280	813.59665	-287.03920	1074.87968	610.53444	-114.65790	1107.06764	528.21388	-48.55581	1096.27769	766.27441	-245.24897	1426.86142	731.95435	-150.10991	1506.25977	715.39268	-356.67641	1605.57983	786.06659	-256.11240	1639.81705	654.55643	-187.10075	1633.21518	786.45317	-209.09727	1438.01788	504.56814	-161.82943	1122.98958	406.92352	-137.05200	1104.00574	459.95148	-228.47317	1130.84175	445.95455	-260.08755	895.57228	406.48228	-292.63521	908.44116	436.20579	-268.49112	902.02446	471.67652	-136.77625	1424.37881	893.80333	-100.75446	1104.48914	893.86787	-158.03508	1126.41273	958.22227	-89.42822	1123.06519	961.76102	-238.56361	875.78163	946.56357	-224.04516	867.09702	990.77522	-179.33819	860.12604	978.63914	-158.46570	918.35320	483.72883	-151.23573	887.74864	850.40421	-254.45604	421.00750	460.59925	-182.27779	460.62695	421.78059	-198.12132	426.75537	542.08961	-185.89874	441.70670	771.91277	-79.27438	469.13403	775.79048	-163.86635	445.12173	681.80901	-188.31554	188.07089	410.84835	-171.51060	176.43450	474.52892	-111.59847	188.42901	414.46281	-127.79997	158.73524	754.48257	-64.34098	164.96691	706.34338	-140.13407	174.76088	683.65807	-975.57327	1032.11990	485.36846	-974.06250	1039.58160	644.56955	-1135.69016	1039.35188	652.56645	-1092.70241	1042.16408	466.72550	-1043.36594	1381.03394	575.02945	-1180.28801	1412.54578	554.28974	-987.64786	1590.52841	598.76499	-1143.25432	1555.96161	663.72383	-1124.61014	1565.72617	501.39027	-1140.40176	1348.78357	743.79570	-1117.73956	1055.56305	775.14923	-1174.79073	1047.01035	744.92661	-1105.84404	1045.28610	719.56863	-1090.89996	809.19662	798.33138	-1047.84714	821.99326	797.98119	-1043.89458	821.34979	758.99490	-1064.13879	1356.19904	392.66876	-1095.21187	1045.45258	369.74434	-1028.63113	1052.86896	397.50256	-1050.99548	1051.80443	347.52186	-1008.37395	826.34850	385.80494	-1007.28035	829.86938	343.18241	-964.35654	835.92751	357.53944	-1087.68707	876.75064	735.07301	-1029.87045	890.46738	401.78749	-1036.94351	452.67834	656.21162	-1148.04924	487.44499	690.89836	-1118.50311	485.38353	574.46903	-1015.84167	464.50367	515.51289	-1096.43394	479.93176	418.10207	-1121.46660	478.28194	541.31931	-1106.57974	167.19845	676.53473	-1133.30727	162.71936	608.10154	-1187.45689	154.05088	672.95563	-1067.84752	165.67694	459.54193	-1128.30688	168.10450	423.00049	-1127.65495	172.53716	512.32716 
77	31.267	-236.49704	1066.59653	815.71716	-285.60444	1075.60364	612.41364	-112.89927	1108.29811	531.35090	-48.10048	1096.33530	769.64104	-245.12434	1427.14325	735.87265	-149.77443	1506.54190	719.92989	-356.88774	1605.60684	789.16161	-255.41134	1639.92554	658.35823	-187.46681	1633.41370	790.82809	-207.62869	1439.05426	508.64559	-159.78147	1124.23965	410.47714	-135.17909	1105.04517	463.71380	-226.55334	1132.00401	449.10622	-258.47788	897.05704	408.94836	-291.07492	909.90517	438.63930	-267.22803	903.26675	474.09657	-137.57446	1423.98270	898.32085	-100.91848	1104.10179	897.67372	-158.17273	1125.57274	961.26442	-89.63972	1122.50916	965.06020	-236.50476	873.92975	948.31146	-222.00691	865.30556	992.60849	-176.87174	858.82301	980.39474	-156.80211	919.57520	485.41470	-150.70114	887.28935	852.07382	-257.14706	422.64290	460.75020	-184.36520	462.18819	422.86816	-202.25128	428.23708	543.05035	-185.58716	441.47472	772.49184	-79.09485	468.82919	776.67183	-163.38703	445.19485	682.47513	-190.02098	189.74430	412.56931	-174.42118	178.11443	476.47484	-113.40535	190.01944	417.54906	-127.68858	158.57974	754.65851	-64.29866	164.83955	706.61545	-140.05196	174.80280	683.84674	-975.34157	1032.01904	485.33707	-973.72604	1039.49608	644.56055	-1135.44266	1039.37782	652.50954	-1092.56149	1042.19467	466.68701	-1043.14285	1381.02722	575.04658	-1180.06226	1412.87567	554.27879	-987.15118	1590.21393	598.41026	-1142.97523	1556.27045	663.53874	-1124.10583	1565.89142	501.20689	-1139.90929	1348.91342	743.74649	-1117.29599	1055.68886	775.20454	-1174.32663	1047.14073	744.91493	-1105.69336	1045.41672	719.39255	-1090.33913	809.28177	798.36205	-1047.48047	822.11967	797.87331	-1043.65601	821.43143	758.72787	-1063.67661	1356.28754	392.63863	-1094.86000	1045.58777	369.71825	-1028.26927	1052.96127	397.52430	-1050.63377	1051.88126	347.46307	-1008.37875	826.57791	385.20763	-1007.12402	829.93179	343.12721	-964.16420	835.93140	357.55257	-1087.78282	877.01660	735.09514	-1029.78012	890.46738	401.64734	-1036.94664	452.68688	656.10641	-1148.01476	487.46517	690.80681	-1118.56918	485.42782	574.45930	-1015.94925	464.43947	515.49652	-1096.47926	479.94537	417.98965	-1121.49338	478.30803	541.22078	-1106.56113	167.23122	676.50330	-1133.30032	162.71265	608.05428	-1187.45682	154.06675	672.88887	-1068.03650	165.65449	459.76238	-1128.32359	168.09511	423.00297	-1127.64954	172.53727	512.31159 
78	31.283	-236.17556	1066.23016	817.71469	-284.08745	1076.25862	614.23477	-111.01864	1109.49127	534.21257	-47.61381	1096.33614	772.69478	-244.93137	1427.29080	739.47220	-149.53725	1506.77765	724.36707	-357.17739	1605.50156	792.20978	-254.85975	1640.09949	662.13242	-187.56334	1633.75153	795.04623	-206.09945	1440.17166	512.60281	-157.67642	1125.53986	413.82702	-133.55721	1106.16791	467.29038	-224.60299	1133.38936	452.08954	-256.93186	898.63754	411.31943	-289.59208	911.42418	440.94711	-265.78516	904.66690	476.46233	-138.26655	1423.46085	902.56683	-101.07498	1103.63457	901.23329	-158.33885	1124.64134	964.02412	-89.80770	1121.88454	968.14926	-234.21158	872.08748	950.00999	-219.86448	863.47946	994.29779	-174.84306	857.44194	982.60574	-155.12644	920.89088	486.85501	-150.33651	886.77910	853.49998	-260.01003	424.38766	460.90633	-186.34285	463.68446	424.07803	-206.18561	429.69440	543.89839	-185.37174	441.29581	772.93617	-78.81527	468.58295	777.36412	-163.00409	445.26897	682.92366	-191.68896	191.40970	414.36588	-177.16097	179.68786	478.60146	-115.03611	191.63168	420.76538	-127.63506	158.43969	754.76234	-64.19351	164.80270	706.71021	-139.98155	174.81117	683.98972	-975.15396	1031.90636	485.31517	-973.44429	1039.36348	644.54613	-1135.43037	1039.51393	652.54234	-1092.28035	1042.22992	466.54766	-1042.94540	1381.03622	575.03006	-1179.89029	1413.36365	554.29813	-986.59927	1589.77448	598.21095	-1142.65121	1556.68686	663.43674	-1123.58047	1566.09360	501.15181	-1139.51492	1349.04648	743.71681	-1116.84219	1055.80933	775.21721	-1173.94249	1047.25990	744.96887	-1105.31082	1045.54207	719.47197	-1089.84848	809.38995	798.37631	-1046.69060	822.25464	797.52350	-1043.20000	821.40594	758.39027	-1063.37624	1356.36749	392.65564	-1094.53743	1045.66818	369.70757	-1027.93907	1053.01697	397.56264	-1050.30945	1051.92795	347.49603	-1008.35533	826.80023	384.59023	-1006.88278	829.95720	343.04577	-963.98651	835.93964	357.60777	-1087.87857	877.28249	735.11742	-1029.63959	890.48050	401.56334	-1036.90773	452.67899	656.01715	-1148.06221	487.54208	690.77911	-1119.57382	485.86327	575.01026	-1015.98335	464.39838	515.49992	-1096.50085	479.96681	417.91294	-1121.54366	478.39714	541.16970	-1106.55853	167.25332	676.46370	-1133.28262	162.71864	607.98672	-1187.43500	154.07748	672.82669	-1067.91725	165.74574	459.45724	-1128.32077	168.11636	422.93808	-1127.65533	172.59939	512.28294 
79	31.300	-235.93019	1065.83305	819.62906	-282.77699	1076.98235	615.88699	-109.27797	1110.66803	536.87962	-47.28652	1096.29128	775.69496	-244.71212	1427.35046	742.78076	-149.24399	1506.98685	728.63983	-357.25864	1605.38757	795.02068	-254.25728	1640.23422	665.63759	-187.99288	1633.86505	799.08203	-204.51851	1441.24466	516.33926	-155.51703	1126.89087	416.94851	-131.86070	1107.26784	470.51216	-222.87338	1134.73953	454.77005	-255.40506	900.27748	413.60893	-288.23057	913.09402	443.12420	-264.66055	906.07101	478.64906	-138.95494	1422.93228	906.63681	-101.28444	1103.03436	904.69276	-158.62812	1123.45215	966.65825	-89.95847	1121.25191	971.16409	-231.58834	869.96292	951.41571	-217.75269	861.47499	995.95467	-172.46460	856.03035	984.41162	-153.50616	922.12326	488.27824	-149.91861	886.26793	854.94850	-262.53714	425.91747	461.04111	-188.41793	465.09480	425.24605	-210.46188	431.33640	544.99298	-185.18147	441.12286	773.24944	-78.46466	468.37482	777.85995	-162.68822	445.25883	683.44681	-193.04276	192.78498	416.34106	-179.55421	181.41413	480.84984	-116.44645	193.15964	424.38320	-127.62981	158.33290	754.88419	-64.21660	164.69351	706.92116	-139.89378	174.82912	684.11896	-974.91714	1031.82037	485.23258	-973.22182	1039.23264	644.53026	-1135.16457	1039.51317	652.48238	-1093.01048	1042.25548	467.12971	-1042.79808	1381.01639	575.03353	-1179.70146	1413.92136	554.25220	-985.89745	1589.42947	598.13507	-1141.97441	1557.11517	663.16231	-1122.97646	1566.35468	501.01509	-1139.25705	1349.12415	743.76030	-1116.42044	1055.90752	775.19806	-1173.58421	1047.38365	745.05898	-1104.74487	1045.62294	719.84756	-1089.20700	809.50241	798.30994	-1046.23314	822.37373	797.36092	-1042.89581	821.57097	758.17726	-1063.10303	1356.40305	392.63054	-1094.23218	1045.72777	369.72813	-1027.68288	1053.05923	397.60674	-1049.91364	1051.98921	347.50736	-1008.12302	826.84181	384.56905	-1006.62437	830.00313	343.05679	-963.71674	835.94337	357.65106	-1087.97455	877.54814	735.13939	-1029.50981	890.42923	401.46332	-1036.85822	452.68845	655.93269	-1147.88376	487.51770	690.63660	-1119.49127	485.89111	574.93423	-1015.78087	464.43684	515.32097	-1096.51230	479.97871	417.84077	-1121.45058	478.37757	541.03264	-1106.54053	167.28058	676.45180	-1133.25104	162.72964	607.94067	-1187.41272	154.12035	672.81158	-1067.84302	165.78445	459.28848	-1128.34564	168.10656	422.91267	-1127.65274	172.60319	512.23625 
